<svg xmlns="http://www.w3.org/2000/svg" width="500" height="500" viewBox="0 0 500 500">
  <!-- Background Circle (Transparent) -->
  <circle cx="250" cy="250" r="240" fill="none" />
  
  <!-- Outer Glow -->
  <circle cx="250" cy="250" r="240" fill="none" stroke="#16a085" stroke-width="1" opacity="0.2" />
  <circle cx="250" cy="250" r="230" fill="none" stroke="#16a085" stroke-width="1" opacity="0.3" />
  <circle cx="250" cy="250" r="220" fill="none" stroke="#16a085" stroke-width="1" opacity="0.4" />
  
  <!-- Globe Wireframe -->
  <!-- Main Circle -->
  <circle cx="250" cy="250" r="200" fill="none" stroke="#16a085" stroke-width="2" />
  
  <!-- Latitude Lines -->
  <ellipse cx="250" cy="250" rx="200" ry="30" fill="none" stroke="#16a085" stroke-width="1" />
  <ellipse cx="250" cy="250" rx="200" ry="60" fill="none" stroke="#16a085" stroke-width="1" />
  <ellipse cx="250" cy="250" rx="200" ry="90" fill="none" stroke="#16a085" stroke-width="1" />
  <ellipse cx="250" cy="250" rx="200" ry="120" fill="none" stroke="#16a085" stroke-width="1" />
  <ellipse cx="250" cy="250" rx="200" ry="150" fill="none" stroke="#16a085" stroke-width="1" />
  <ellipse cx="250" cy="250" rx="200" ry="180" fill="none" stroke="#16a085" stroke-width="1" />
  
  <!-- Longitude Lines -->
  <ellipse cx="250" cy="250" ry="200" rx="30" fill="none" stroke="#16a085" stroke-width="1" />
  <ellipse cx="250" cy="250" ry="200" rx="60" fill="none" stroke="#16a085" stroke-width="1" />
  <ellipse cx="250" cy="250" ry="200" rx="90" fill="none" stroke="#16a085" stroke-width="1" />
  <ellipse cx="250" cy="250" ry="200" rx="120" fill="none" stroke="#16a085" stroke-width="1" />
  <ellipse cx="250" cy="250" ry="200" rx="150" fill="none" stroke="#16a085" stroke-width="1" />
  <ellipse cx="250" cy="250" ry="200" rx="180" fill="none" stroke="#16a085" stroke-width="1" />
  
  <!-- Connection Points -->
  <circle cx="300" cy="150" r="4" fill="#ffffff" />
  <circle cx="350" cy="200" r="4" fill="#ffffff" />
  <circle cx="320" cy="300" r="4" fill="#ffffff" />
  <circle cx="200" cy="180" r="4" fill="#ffffff" />
  <circle cx="150" cy="250" r="4" fill="#ffffff" />
  <circle cx="180" cy="320" r="4" fill="#ffffff" />
  <circle cx="250" cy="150" r="4" fill="#ffffff" />
  <circle cx="250" cy="350" r="4" fill="#ffffff" />
  
  <!-- Connection Lines -->
  <path d="M 300,150 L 350,200 L 320,300 L 180,320 L 150,250 L 200,180 L 300,150" fill="none" stroke="#16a085" stroke-width="1" />
  <path d="M 250,150 L 300,150" fill="none" stroke="#16a085" stroke-width="1" />
  <path d="M 250,350 L 320,300" fill="none" stroke="#16a085" stroke-width="1" />
  <path d="M 250,350 L 180,320" fill="none" stroke="#16a085" stroke-width="1" />
  <path d="M 250,150 L 200,180" fill="none" stroke="#16a085" stroke-width="1" />
  
  <!-- Digital Particles -->
  <g opacity="0.7">
    <circle cx="270" cy="170" r="2" fill="#16a085" />
    <circle cx="330" cy="220" r="2" fill="#16a085" />
    <circle cx="290" cy="280" r="2" fill="#16a085" />
    <circle cx="220" cy="200" r="2" fill="#16a085" />
    <circle cx="170" cy="270" r="2" fill="#16a085" />
    <circle cx="210" cy="300" r="2" fill="#16a085" />
    <circle cx="260" cy="170" r="2" fill="#16a085" />
    <circle cx="240" cy="330" r="2" fill="#16a085" />
    <circle cx="190" cy="240" r="2" fill="#16a085" />
    <circle cx="310" cy="240" r="2" fill="#16a085" />
    <circle cx="280" cy="190" r="2" fill="#16a085" />
    <circle cx="230" cy="260" r="2" fill="#16a085" />
  </g>
  
  <!-- Pulse Animation -->
  <circle cx="250" cy="250" r="210" fill="none" stroke="#16a085" stroke-width="3" opacity="0.2">
    <animate attributeName="r" values="210;230;210" dur="4s" repeatCount="indefinite" />
    <animate attributeName="opacity" values="0.2;0.1;0.2" dur="4s" repeatCount="indefinite" />
  </circle>
  
  <!-- Rotation Animation -->
  <animateTransform 
    attributeName="transform"
    attributeType="XML"
    type="rotate"
    from="0 250 250"
    to="360 250 250"
    dur="60s"
    repeatCount="indefinite"
  />
</svg>