<svg xmlns="http://www.w3.org/2000/svg" viewBox="0 0 200 200" width="200" height="200">
  <!-- Background Circle -->
  <circle cx="100" cy="100" r="90" fill="#1a1a2e" />
  
  <!-- Outer Ring -->
  <circle cx="100" cy="100" r="85" fill="none" stroke="#16a085" stroke-width="3" />
  
  <!-- Inner Elements - Digital/Tech Theme -->
  <!-- Circuit Board Lines -->
  <path d="M40,100 L70,100 M130,100 L160,100 M100,40 L100,70 M100,130 L100,160" stroke="#16a085" stroke-width="3" />
  
  <!-- Connection Nodes -->
  <circle cx="70" cy="100" r="5" fill="#16a085" />
  <circle cx="130" cy="100" r="5" fill="#16a085" />
  <circle cx="100" cy="70" r="5" fill="#16a085" />
  <circle cx="100" cy="130" r="5" fill="#16a085" />
  
  <!-- Central Globe/Network Icon -->
  <circle cx="100" cy="100" r="30" fill="none" stroke="#16a085" stroke-width="3" />
  
  <!-- Latitude Lines -->
  <ellipse cx="100" cy="100" rx="30" ry="10" fill="none" stroke="#16a085" stroke-width="1.5" />
  <ellipse cx="100" cy="100" rx="30" ry="20" fill="none" stroke="#16a085" stroke-width="1.5" />
  
  <!-- Longitude Lines -->
  <path d="M100,70 C115,85 115,115 100,130 C85,115 85,85 100,70" fill="none" stroke="#16a085" stroke-width="1.5" />
  <path d="M70,100 C85,85 115,85 130,100 C115,115 85,115 70,100" fill="none" stroke="#16a085" stroke-width="1.5" />
  
  <!-- Digital Dots/Nodes -->
  <circle cx="90" cy="90" r="2" fill="#ffffff" />
  <circle cx="110" cy="90" r="2" fill="#ffffff" />
  <circle cx="90" cy="110" r="2" fill="#ffffff" />
  <circle cx="110" cy="110" r="2" fill="#ffffff" />
  <circle cx="100" cy="85" r="2" fill="#ffffff" />
  <circle cx="100" cy="115" r="2" fill="#ffffff" />
  <circle cx="85" cy="100" r="2" fill="#ffffff" />
  <circle cx="115" cy="100" r="2" fill="#ffffff" />
  
  <!-- Text: DISKOMINFO -->
  <text x="100" y="185" font-family="Arial, sans-serif" font-size="14" font-weight="bold" fill="#ffffff" text-anchor="middle">DISKOMINFO</text>
  <text x="100" y="198" font-family="Arial, sans-serif" font-size="10" fill="#16a085" text-anchor="middle">KABUPATEN SIAK</text>
</svg>