<svg xmlns="http://www.w3.org/2000/svg" width="200" height="200" viewBox="0 0 200 200">
  <!-- Background Circle -->
  <circle cx="100" cy="100" r="90" fill="#1a1a2e" />
  
  <!-- Car Body -->
  <path d="M 40,110 L 40,90 L 60,70 L 140,70 L 160,90 L 160,110 Z" fill="none" stroke="#16a085" stroke-width="4" />
  
  <!-- Car Windows -->
  <path d="M 70,90 L 80,75 L 120,75 L 130,90" fill="none" stroke="#16a085" stroke-width="2" />
  
  <!-- Car Wheels -->
  <circle cx="70" cy="110" r="15" fill="none" stroke="#16a085" stroke-width="4" />
  <circle cx="130" cy="110" r="15" fill="none" stroke="#16a085" stroke-width="4" />
  <circle cx="70" cy="110" r="5" fill="#16a085" />
  <circle cx="130" cy="110" r="5" fill="#16a085" />
  
  <!-- Dollar Sign -->
  <circle cx="140" cy="50" r="20" fill="#16a085" />
  <path d="M 140,40 L 140,60 M 135,45 L 140,40 L 145,45 M 135,55 L 140,60 L 145,55" fill="none" stroke="#ffffff" stroke-width="3" />
  
  <!-- Digital Elements -->
  <circle cx="50" cy="80" r="3" fill="#ffffff" />
  <circle cx="150" cy="80" r="3" fill="#ffffff" />
  <circle cx="100" cy="130" r="3" fill="#ffffff" />
  <circle cx="100" cy="150" r="3" fill="#ffffff" />
  
  <!-- Speed Lines -->
  <path d="M 20,90 L 35,90 M 20,100 L 35,100 M 20,110 L 35,110" fill="none" stroke="#16a085" stroke-width="2" stroke-dasharray="2,2" />
</svg>